<?xml version="1.0" encoding="UTF-8"?>
<svg id="Layer_1" xmlns="http://www.w3.org/2000/svg" version="1.1" viewBox="0 0 100 100">
  <!-- Generator: Adobe Illustrator 29.6.0, SVG Export Plug-In . SVG Version: 2.1.1 Build 207)  -->
  <defs>
    <style>
      .st0 {
        fill: #2c2c2c;
      }

      .st1 {
        fill: #4b9bea;
      }
    </style>
  </defs>
  <rect class="st0" width="100" height="100" rx="20" ry="20"/>
  <rect class="st1" x="15" y="25" width="70" height="50" rx="8" ry="8"/>
  <circle class="st0" cx="50" cy="50" r="15"/>
  <circle class="st1" cx="50" cy="50" r="10"/>
  <rect class="st0" x="20" y="30" width="8" height="6" rx="2" ry="2"/>
  <path class="st1" d="M39,20h22c2.21,0,4,1.79,4,4h0c0,2.21-1.79,4-4,4h-22c-2.21,0-4-1.79-4-4h0c0-2.21,1.79-4,4-4Z"/>
  <path class="st0" d="M44,22h12c1.1,0,2,.9,2,2h0c0,1.1-.9,2-2,2h-12c-1.1,0-2-.9-2-2h0c0-1.1.9-2,2-2Z"/>
</svg>