<?xml version="1.0" encoding="UTF-8"?>
<svg id="Layer_1" xmlns="http://www.w3.org/2000/svg" version="1.1" viewBox="0 0 1200 630">
  <!-- Generator: Adobe Illustrator 29.6.0, SVG Export Plug-In . SVG Version: 2.1.1 Build 207)  -->
  <defs>
    <style>
      .st0 {
        fill: #ddecfb;
        font-family: ArialMT, Arial;
        font-size: 28px;
      }

      .st0, .st1 {
        isolation: isolate;
      }

      .st2 {
        fill: #2c2c2c;
      }

      .st1 {
        font-family: Arial-BoldMT, Arial;
        font-size: 48px;
        font-weight: 700;
      }

      .st1, .st3 {
        fill: #4b9bea;
      }

      .st4 {
        fill: #1a1a1a;
      }
    </style>
  </defs>
  <rect class="st4" width="1200" height="630"/>
  <g>
    <rect class="st3" x="450" y="165" width="300" height="200" rx="30" ry="30"/>
    <circle class="st2" cx="600" cy="265" r="50"/>
    <circle class="st3" cx="600" cy="265" r="35"/>
    <rect class="st2" x="490" y="190" width="25" height="15" rx="5" ry="5"/>
    <rect class="st3" x="550" y="165" width="100" height="25" rx="12" ry="12"/>
    <rect class="st2" x="575" y="170" width="50" height="15" rx="7" ry="7"/>
    <path class="st2" d="M674,205h7c2.21,0,4,1.79,4,4h0c0,2.21-1.79,4-4,4h-7c-2.21,0-4-1.79-4-4h0c0-2.21,1.79-4,4-4Z"/>
    <path class="st2" d="M674,220h17c2.21,0,4,1.79,4,4h0c0,2.21-1.79,4-4,4h-17c-2.21,0-4-1.79-4-4h0c0-2.21,1.79-4,4-4Z"/>
    <path class="st2" d="M674,235h7c2.21,0,4,1.79,4,4h0c0,2.21-1.79,4-4,4h-7c-2.21,0-4-1.79-4-4h0c0-2.21,1.79-4,4-4Z"/>
    <path class="st2" d="M674,250h17c2.21,0,4,1.79,4,4h0c0,2.21-1.79,4-4,4h-17c-2.21,0-4-1.79-4-4h0c0-2.21,1.79-4,4-4Z"/>
  </g>
  <text class="st1" transform="translate(372 450)"><tspan x="0" y="0">Sahoo Photography</tspan></text>
  <text class="st0" transform="translate(347.86 500)"><tspan x="0" y="0">Photographer, programmer, med student</tspan></text>
</svg>